<svg xmlns="http://www.w3.org/2000/svg" width="1600" height="1000" viewBox="0 0 1600 1000" role="img" aria-label="Coffee Central poster cover">
  <defs>
    <pattern id="hexPatternCoffee" width="180" height="156" patternUnits="userSpaceOnUse">
      <polygon points="45,0 135,0 180,78 135,156 45,156 0,78" fill="none" stroke="#c8ccc7" stroke-width="6"/>
    </pattern>
    <linearGradient id="screenCoffee" x1="0%" y1="0%" x2="100%" y2="100%">
      <stop offset="0%" stop-color="#efe0cc"/>
      <stop offset="100%" stop-color="#e1ccb0"/>
    </linearGradient>
    <linearGradient id="navCoffee" x1="0%" y1="0%" x2="100%" y2="0%">
      <stop offset="0%" stop-color="#1a0f0b"/>
      <stop offset="100%" stop-color="#2d1b11"/>
    </linearGradient>
    <linearGradient id="heroCoffee" x1="0%" y1="0%" x2="100%" y2="0%">
      <stop offset="0%" stop-color="#1f110c"/>
      <stop offset="100%" stop-color="#341c11"/>
    </linearGradient>
    <linearGradient id="shotCoffee" x1="0%" y1="0%" x2="100%" y2="100%">
      <stop offset="0%" stop-color="#73808c"/>
      <stop offset="100%" stop-color="#2f3b43"/>
    </linearGradient>
  </defs>

  <rect width="1600" height="1000" fill="#ece9e8"/>
  <rect x="0" y="0" width="320" height="1000" fill="url(#hexPatternCoffee)"/>
  <rect x="1280" y="0" width="320" height="1000" fill="url(#hexPatternCoffee)"/>

  <text x="800" y="98" text-anchor="middle" font-family="Brush Script MT, Segoe Script, cursive" font-size="84" fill="#5f4b3f">coffee website</text>
  <text x="800" y="178" text-anchor="middle" font-family="Sora, Manrope, Arial, sans-serif" font-size="82" font-weight="800" letter-spacing="5" fill="#aa7f69">COFFEE CENTRAL</text>

  <rect x="430" y="240" width="740" height="492" rx="28" fill="#090909"/>
  <rect x="464" y="276" width="672" height="408" rx="8" fill="url(#screenCoffee)"/>
  <circle cx="800" cy="256" r="6" fill="#252525"/>

  <rect x="464" y="276" width="672" height="34" rx="8" fill="url(#navCoffee)"/>
  <circle cx="480" cy="293" r="8" fill="#d7a25f"/>
  <text x="495" y="299" font-family="Manrope, Arial, sans-serif" font-size="13" font-weight="800" fill="#f9eddc">COFFEE CENTRAL</text>
  <text x="671" y="299" font-family="Manrope, Arial, sans-serif" font-size="10" font-weight="700" fill="#d5bda2">HOME</text>
  <text x="708" y="299" font-family="Manrope, Arial, sans-serif" font-size="10" font-weight="700" fill="#d5bda2">MENU</text>
  <text x="747" y="299" font-family="Manrope, Arial, sans-serif" font-size="10" font-weight="700" fill="#d5bda2">CONTACT</text>
  <rect x="966" y="282" width="114" height="20" rx="5" fill="#2f2015" stroke="#6b4a34" stroke-width="0.8"/>
  <text x="974" y="296" font-family="Manrope, Arial, sans-serif" font-size="9" fill="#d8bea0">THIRUVALLA</text>
  <rect x="1086" y="282" width="44" height="20" rx="5" fill="#d8a467"/>
  <text x="1092" y="296" font-family="Manrope, Arial, sans-serif" font-size="8.5" font-weight="800" fill="#2a1b12">RESERVE</text>

  <rect x="474" y="320" width="652" height="292" rx="7" fill="#e8d4bc" stroke="#c6a989" stroke-width="1"/>
  <rect x="474" y="320" width="337" height="292" rx="7" fill="url(#heroCoffee)"/>
  <rect x="488" y="336" width="96" height="22" rx="5" fill="#2f2015" stroke="#6b4a34" stroke-width="0.8"/>
  <text x="495" y="351" font-family="Manrope, Arial, sans-serif" font-size="9.5" font-weight="700" fill="#efd9be">THIRUVALLA SPECIALTY</text>
  <text x="495" y="390" font-family="Sora, Manrope, Arial, sans-serif" font-size="36" font-weight="700" fill="#f7ead9">Discover The Art</text>
  <text x="495" y="430" font-family="Sora, Manrope, Arial, sans-serif" font-size="36" font-weight="700" fill="#f7ead9">Of Perfect Coffee</text>
  <text x="495" y="458" font-family="Manrope, Arial, sans-serif" font-size="14" fill="#d5bea5">A rich coffee-toned space where espresso craft,</text>
  <text x="495" y="478" font-family="Manrope, Arial, sans-serif" font-size="14" fill="#d5bea5">premium beans, and curated food pairings blend.</text>

  <rect x="495" y="495" width="102" height="28" rx="5" fill="#d8a467"/>
  <text x="505" y="513" font-family="Manrope, Arial, sans-serif" font-size="11" font-weight="800" fill="#2c1c14">EXPLORE MENU</text>
  <rect x="603" y="495" width="96" height="28" rx="5" fill="none" stroke="#5f4432" stroke-width="1"/>
  <text x="614" y="513" font-family="Manrope, Arial, sans-serif" font-size="11" font-weight="700" fill="#a17a5b">BOOK EVENT</text>

  <g font-family="Manrope, Arial, sans-serif">
    <rect x="495" y="536" width="72" height="42" rx="4" fill="none" stroke="#5f4432" stroke-width="1"/>
    <text x="503" y="554" font-size="18" font-weight="800" fill="#d8a467">4.9</text>
    <text x="503" y="570" font-size="11" fill="#ceb197">RATING</text>

    <rect x="573" y="536" width="90" height="42" rx="4" fill="none" stroke="#5f4432" stroke-width="1"/>
    <text x="581" y="554" font-size="18" font-weight="800" fill="#d8a467">18+</text>
    <text x="581" y="570" font-size="11" fill="#ceb197">DRINKS</text>

    <rect x="669" y="536" width="64" height="42" rx="4" fill="none" stroke="#5f4432" stroke-width="1"/>
    <text x="677" y="554" font-size="18" font-weight="800" fill="#d8a467">350</text>
    <text x="677" y="570" font-size="11" fill="#ceb197">CUPS</text>

    <rect x="739" y="536" width="62" height="42" rx="4" fill="none" stroke="#5f4432" stroke-width="1"/>
    <text x="747" y="554" font-size="18" font-weight="800" fill="#d8a467">7 AM</text>
    <text x="747" y="570" font-size="11" fill="#ceb197">OPEN</text>
  </g>

  <rect x="811" y="320" width="315" height="292" rx="7" fill="#e8d4bc"/>
  <rect x="902" y="423" width="212" height="176" fill="url(#shotCoffee)" stroke="#2a1b12" stroke-width="2"/>
  <circle cx="985" cy="504" r="56" fill="#6f4a31"/>
  <circle cx="985" cy="504" r="43" fill="#81583c"/>
  <circle cx="985" cy="504" r="31" fill="#98694a"/>
  <ellipse cx="1048" cy="566" rx="42" ry="14" fill="#3a281d"/>
  <ellipse cx="1071" cy="566" rx="34" ry="12" fill="#281a13"/>

  <g transform="translate(830 341) rotate(-4)">
    <rect x="0" y="0" width="96" height="70" fill="#4a3528" stroke="#2d1b12" stroke-width="2"/>
    <circle cx="20" cy="44" r="13" fill="#c48e55"/>
    <circle cx="40" cy="40" r="13" fill="#cf9b66"/>
    <circle cx="62" cy="47" r="13" fill="#d4a46f"/>
    <circle cx="79" cy="34" r="13" fill="#bc8650"/>
  </g>

  <g transform="translate(852 478) rotate(4)">
    <rect x="0" y="0" width="108" height="72" fill="#4a3528" stroke="#2d1b12" stroke-width="2"/>
    <circle cx="18" cy="37" r="10" fill="#d3ac7d"/>
    <circle cx="38" cy="26" r="10" fill="#c79461"/>
    <circle cx="58" cy="38" r="10" fill="#b67f4f"/>
    <circle cx="80" cy="28" r="10" fill="#d3ac7d"/>
    <circle cx="94" cy="44" r="10" fill="#c18a59"/>
  </g>

  <rect x="1081" y="332" width="38" height="20" rx="4" fill="#3a281d"/>
  <text x="1086" y="346" font-family="Manrope, Arial, sans-serif" font-size="8.5" fill="#ead5ba">ROAST</text>
  <rect x="820" y="571" width="88" height="22" rx="4" fill="#3a281d"/>
  <text x="826" y="586" font-family="Manrope, Arial, sans-serif" font-size="9" fill="#ead5ba">SINGLE ORIGIN</text>

  <rect x="464" y="619" width="672" height="28" fill="#2c1911"/>
  <text x="478" y="638" font-family="Manrope, Arial, sans-serif" font-size="11" font-weight="700" letter-spacing="1.5" fill="#d9bc9a">AFFOGATO NIGHT     ROASTERY TOUR     NITRO COLD BREW     SIGNATURE TIRAMISU LATTE</text>

  <rect x="700" y="732" width="200" height="22" rx="11" fill="#9a6d58"/>
  <rect x="330" y="754" width="940" height="30" rx="15" fill="#d8d0cc"/>
  <rect x="340" y="784" width="920" height="5" rx="3" fill="#9e8779"/>

  <text x="800" y="880" text-anchor="middle" font-family="Manrope, Arial, sans-serif" font-size="46" font-weight="700" letter-spacing="9" fill="#59493f">THIS WEBSITE IS USED TO PRESENT A</text>
  <text x="800" y="935" text-anchor="middle" font-family="Manrope, Arial, sans-serif" font-size="46" font-weight="700" letter-spacing="9" fill="#59493f">MODERN CAFE BRAND EXPERIENCE.</text>
</svg>
